<svg width="10" height="11" viewBox="0 0 10 11" fill="none" xmlns="http://www.w3.org/2000/svg">
<path fill-rule="evenodd" clip-rule="evenodd" d="M2.6 0.986328C1.90029 0.986328 1.375 1.51244 1.375 2.11133H1H0.625C0.625 1.05336 1.53241 0.236328 2.6 0.236328H9C9.20711 0.236328 9.375 0.404221 9.375 0.611328V8.61133C9.375 8.81843 9.20711 8.98633 9 8.98633V8.61133C9 8.98633 9.00004 8.98633 9 8.98633H2.6C2.29061 8.98633 2.05351 8.99703 1.87019 9.02245C1.68493 9.04814 1.58101 9.08561 1.52146 9.12154C1.45247 9.16317 1.375 9.23618 1.375 9.61133C1.375 9.81843 1.20711 9.98633 1 9.98633C0.792893 9.98633 0.625 9.81843 0.625 9.61133V2.11133C0.625 2.11128 0.625 2.11133 1 2.11133C1.375 2.11133 1.375 2.11128 1.375 2.11133V8.36852C1.49775 8.32631 1.62977 8.29862 1.76716 8.27956C2.00191 8.24701 2.27967 8.23633 2.6 8.23633H8.625V0.986328H2.6Z" fill="#1C1B1F"/>
<path fill-rule="evenodd" clip-rule="evenodd" d="M0.625 9.61133C0.625 8.85195 1.24061 8.23633 2 8.23633H9C9.20711 8.23633 9.375 8.40422 9.375 8.61133V10.6113C9.375 10.8184 9.20711 10.9863 9 10.9863H2C1.24061 10.9863 0.625 10.3707 0.625 9.61133ZM2 8.98633C1.65482 8.98633 1.375 9.26616 1.375 9.61133C1.375 9.9565 1.65482 10.2363 2 10.2363H8.625V8.98633H2Z" fill="#1C1B1F"/>
</svg>
