<svg width="12" height="12" viewBox="0 0 12 12" fill="none" xmlns="http://www.w3.org/2000/svg">
<path fill-rule="evenodd" clip-rule="evenodd" d="M0.837209 2.26246C0.837209 2.18539 0.899677 2.12292 0.976744 2.12292L11.0233 2.12292C11.1003 2.12292 11.1628 2.18539 11.1628 2.26246V10.0764C11.1628 10.1535 11.1003 10.2159 11.0233 10.2159H0.976744C0.899677 10.2159 0.837209 10.1535 0.837209 10.0764L0.837209 2.26246ZM0.976744 1.28571C0.437307 1.28571 0 1.723 0 2.26246L0 10.0764C0 10.6159 0.437307 11.0532 0.976744 11.0532H11.0233C11.5627 11.0532 12 10.6159 12 10.0764V2.26246C12 1.72301 11.5627 1.28571 11.0233 1.28571L0.976744 1.28571Z" fill="#1C1B1F"/>
<path fill-rule="evenodd" clip-rule="evenodd" d="M0.55814 8.40199C0.55814 8.63318 0.745555 8.8206 0.976744 8.8206H11.0233C11.2544 8.8206 11.4419 8.63318 11.4419 8.40199C11.4419 8.1708 11.2544 7.98339 11.0233 7.98339L0.976744 7.98339C0.745555 7.98339 0.55814 8.1708 0.55814 8.40199Z" fill="#1C1B1F"/>
<path fill-rule="evenodd" clip-rule="evenodd" d="M3.2093 0.169434C2.97811 0.169434 2.7907 0.356849 2.7907 0.588038V2.8206C2.7907 3.05179 2.97811 3.2392 3.2093 3.2392C3.44049 3.2392 3.62791 3.05179 3.62791 2.8206V0.588038C3.62791 0.356849 3.44049 0.169434 3.2093 0.169434Z" fill="#1C1B1F"/>
<path fill-rule="evenodd" clip-rule="evenodd" d="M6 0.169434C5.76881 0.169434 5.5814 0.356849 5.5814 0.588038V2.8206C5.5814 3.05179 5.76881 3.2392 6 3.2392C6.23119 3.2392 6.4186 3.05179 6.4186 2.8206V0.588038C6.4186 0.356849 6.23119 0.169434 6 0.169434Z" fill="#1C1B1F"/>
<path fill-rule="evenodd" clip-rule="evenodd" d="M8.7907 0.169434C8.55951 0.169434 8.37209 0.356849 8.37209 0.588038V2.8206C8.37209 3.05179 8.55951 3.2392 8.7907 3.2392C9.02189 3.2392 9.2093 3.05179 9.2093 2.8206V0.588038C9.2093 0.356849 9.02189 0.169434 8.7907 0.169434Z" fill="#1C1B1F"/>
<path fill-rule="evenodd" clip-rule="evenodd" d="M0.418605 6.0299C0.187416 6.0299 0 6.21731 0 6.4485L0 9.79734C0 10.0285 0.187416 10.2159 0.418605 10.2159C0.649794 10.2159 0.837209 10.0285 0.837209 9.79734L0.837209 6.4485C0.837209 6.21731 0.649794 6.0299 0.418605 6.0299Z" fill="#1C1B1F"/>
<path fill-rule="evenodd" clip-rule="evenodd" d="M11.5814 6.0299C11.3502 6.0299 11.1628 6.21731 11.1628 6.4485V9.79734C11.1628 10.0285 11.3502 10.2159 11.5814 10.2159C11.8126 10.2159 12 10.0285 12 9.79734V6.4485C12 6.21731 11.8126 6.0299 11.5814 6.0299Z" fill="#1C1B1F"/>
</svg>
