<svg width="10" height="11" viewBox="0 0 10 11" fill="none" xmlns="http://www.w3.org/2000/svg">
<path fill-rule="evenodd" clip-rule="evenodd" d="M0.5 0.736328C0.707107 0.736328 0.875 0.904221 0.875 1.11133V9.73633H9.5C9.70711 9.73633 9.875 9.90422 9.875 10.1113C9.875 10.3184 9.70711 10.4863 9.5 10.4863H0.5C0.292893 10.4863 0.125 10.3184 0.125 10.1113V1.11133C0.125 0.904221 0.292893 0.736328 0.5 0.736328Z" fill="#1C1B1F"/>
<path fill-rule="evenodd" clip-rule="evenodd" d="M2.5 6.73633C2.70711 6.73633 2.875 6.90422 2.875 7.11133V8.11133C2.875 8.31843 2.70711 8.48633 2.5 8.48633C2.29289 8.48633 2.125 8.31843 2.125 8.11133V7.11133C2.125 6.90422 2.29289 6.73633 2.5 6.73633Z" fill="#1C1B1F"/>
<path fill-rule="evenodd" clip-rule="evenodd" d="M4.5 4.73633C4.70711 4.73633 4.875 4.90422 4.875 5.11133V8.11133C4.875 8.31843 4.70711 8.48633 4.5 8.48633C4.29289 8.48633 4.125 8.31843 4.125 8.11133V5.11133C4.125 4.90422 4.29289 4.73633 4.5 4.73633Z" fill="#1C1B1F"/>
<path fill-rule="evenodd" clip-rule="evenodd" d="M6.5 0.736328C6.70711 0.736328 6.875 0.904221 6.875 1.11133V8.11133C6.875 8.31843 6.70711 8.48633 6.5 8.48633C6.29289 8.48633 6.125 8.31843 6.125 8.11133V1.11133C6.125 0.904221 6.29289 0.736328 6.5 0.736328Z" fill="#1C1B1F"/>
<path fill-rule="evenodd" clip-rule="evenodd" d="M8.5 2.73633C8.70711 2.73633 8.875 2.90422 8.875 3.11133V8.11133C8.875 8.31843 8.70711 8.48633 8.5 8.48633C8.29289 8.48633 8.125 8.31843 8.125 8.11133V3.11133C8.125 2.90422 8.29289 2.73633 8.5 2.73633Z" fill="#1C1B1F"/>
</svg>
