<svg width="17" height="17" viewBox="0 0 17 17" fill="none" xmlns="http://www.w3.org/2000/svg">
<path d="M10.5895 0.122115L7.22905 0.114014H7.22744C3.68394 0.114014 0.908447 2.89032 0.908447 6.43462C0.908447 9.75452 3.48951 12.2724 6.95604 12.4053V15.5064C6.95604 15.5939 6.99169 15.7381 7.05326 15.8329C7.1683 16.0152 7.36435 16.114 7.56526 16.114C7.67705 16.114 7.78966 16.0832 7.89093 16.0184C8.1048 15.8823 13.1349 12.6645 14.4432 11.5579C15.9841 10.2536 16.906 8.34166 16.9084 6.44434V6.43057C16.9036 2.89275 14.1297 0.122115 10.5895 0.121305V0.122115ZM13.6574 10.6311C12.7387 11.4088 9.71857 13.3896 8.17123 14.3925V11.8106C8.17123 11.4752 7.89984 11.203 7.56364 11.203H7.24283C4.27776 11.203 2.12445 9.19715 2.12445 6.43462C2.12445 3.57163 4.36688 1.3292 7.22825 1.3292L10.5878 1.3373H10.5895C13.4508 1.3373 15.6933 3.57811 15.6949 6.43786C15.6924 7.9852 14.9317 9.55199 13.6582 10.6311H13.6574Z" fill="#0E58A3"/>
</svg>
