<svg width="12" height="11" viewBox="0 0 12 11" fill="none" xmlns="http://www.w3.org/2000/svg">
<path d="M7.09172 8.98633C7.29883 8.98633 7.46672 8.81843 7.46672 8.61133C7.46672 8.40422 7.29883 8.23633 7.09172 8.23633V8.98633ZM6 8.61133L5.81899 8.93975C5.87443 8.9703 5.9367 8.98633 6 8.98633V8.61133ZM3.75 7.37123L3.93101 7.04281C3.83583 6.99035 3.72257 6.98176 3.62056 7.01927L3.75 7.37123ZM1.0022 8.38178L0.872761 8.02982C0.772368 8.06675 0.69252 8.14478 0.653306 8.2443C0.614091 8.34382 0.619243 8.45535 0.667464 8.55083L1.0022 8.38178ZM1.75267 9.86775L1.41794 10.0368C1.50657 10.2123 1.71571 10.2896 1.89715 10.2138L1.75267 9.86775ZM3.52082 9.12955L3.71309 8.80759C3.61101 8.74663 3.48607 8.73769 3.37635 8.7835L3.52082 9.12955ZM11.1704 8.94535C11.3549 8.85122 11.4282 8.62536 11.334 8.44088C11.2399 8.25641 11.014 8.18317 10.8296 8.2773L11.1704 8.94535ZM7.24807 6.35828V6.73328C7.45518 6.73328 7.62307 6.56538 7.62307 6.35828H7.24807ZM7.24807 5.1906L7.10444 4.8442C6.96438 4.90227 6.87307 5.03898 6.87307 5.1906H7.24807ZM8.091 4.70233L8.35616 4.96749L8.35617 4.96748L8.091 4.70233ZM4.909 4.70233L4.64383 4.96748L4.64383 4.96749L4.909 4.70233ZM5.75 5.1906L6.12495 5.18434C6.12245 5.03502 6.03159 4.9014 5.89363 4.8442L5.75 5.1906ZM5.75 6.35828L5.375 6.35752C5.3748 6.45711 5.41422 6.55269 5.48457 6.62318C5.55492 6.69367 5.65041 6.73328 5.75 6.73328V6.35828ZM2.73483 4.59616C2.58839 4.74261 2.58839 4.98005 2.73483 5.12649C2.88128 5.27294 3.11872 5.27294 3.26516 5.12649L2.73483 4.59616ZM3.51516 4.87649C3.66161 4.73005 3.66161 4.49261 3.51516 4.34616C3.36872 4.19972 3.13128 4.19972 2.98483 4.34616L3.51516 4.87649ZM9.73483 5.12649C9.88128 5.27294 10.1187 5.27294 10.2652 5.12649C10.4116 4.98005 10.4116 4.74261 10.2652 4.59616L9.73483 5.12649ZM10.0152 4.34616C9.86872 4.19972 9.63128 4.19972 9.48483 4.34616C9.33839 4.49261 9.33839 4.73005 9.48483 4.87649L10.0152 4.34616ZM3.48483 1.12649C3.63128 1.27294 3.86872 1.27294 4.01516 1.12649C4.16161 0.980047 4.16161 0.74261 4.01516 0.596163L3.48483 1.12649ZM3.76516 0.346163C3.61872 0.199716 3.38128 0.199716 3.23483 0.346163C3.08839 0.49261 3.08839 0.730047 3.23483 0.876493L3.76516 0.346163ZM8.98484 0.596163C8.83839 0.74261 8.83839 0.980047 8.98484 1.12649C9.13128 1.27294 9.36872 1.27294 9.51517 1.12649L8.98484 0.596163ZM9.76517 0.876493C9.91161 0.730047 9.91161 0.49261 9.76517 0.346163C9.61872 0.199716 9.38128 0.199716 9.23483 0.346163L9.76517 0.876493ZM10.25 2.98633C10.4571 2.98633 10.625 2.81843 10.625 2.61133C10.625 2.40422 10.4571 2.23633 10.25 2.23633V2.98633ZM10 2.23633C9.79289 2.23633 9.625 2.40422 9.625 2.61133C9.625 2.81843 9.79289 2.98633 10 2.98633V2.23633ZM3 2.98633C3.20711 2.98633 3.375 2.81843 3.375 2.61133C3.375 2.40422 3.20711 2.23633 3 2.23633V2.98633ZM2.75 2.23633C2.54289 2.23633 2.375 2.40422 2.375 2.61133C2.375 2.81843 2.54289 2.98633 2.75 2.98633V2.23633ZM7.09172 8.23633H6V8.98633H7.09172V8.23633ZM6.18101 8.28291L3.93101 7.04281L3.56899 7.69965L5.81899 8.93975L6.18101 8.28291ZM3.62056 7.01927L0.872761 8.02982L1.13163 8.73373L3.87944 7.72318L3.62056 7.01927ZM0.667464 8.55083L1.41794 10.0368L2.0874 9.6987L1.33693 8.21273L0.667464 8.55083ZM1.89715 10.2138L3.6653 9.4756L3.37635 8.7835L1.60819 9.5217L1.89715 10.2138ZM3.32856 9.45151C4.15918 9.94755 4.83452 10.324 5.3514 10.5776C5.60955 10.7042 5.83427 10.8032 6.0228 10.8714C6.20149 10.936 6.383 10.9863 6.54128 10.9863V10.2363C6.51981 10.2363 6.44067 10.2249 6.27779 10.1661C6.12475 10.1107 5.92699 10.0245 5.68173 9.90422C5.19179 9.66386 4.53664 9.2994 3.71309 8.80759L3.32856 9.45151ZM6.54128 10.9863C6.70614 10.9863 6.92555 10.9199 7.14954 10.839C7.39292 10.7511 7.70369 10.6219 8.07903 10.4535C8.83068 10.1163 9.862 9.61302 11.1704 8.94535L10.8296 8.2773C9.52498 8.94299 8.50667 9.43967 7.77208 9.76918C7.4043 9.93415 7.11281 10.0549 6.89476 10.1336C6.78563 10.173 6.69961 10.2002 6.63455 10.2171C6.564 10.2355 6.53811 10.2363 6.54128 10.2363V10.9863ZM7.62307 6.35828C7.62307 6.35687 7.62307 6.35546 7.62307 6.35405C7.62307 6.35264 7.62307 6.35123 7.62307 6.34982C7.62307 6.34842 7.62307 6.34701 7.62307 6.34561C7.62307 6.3442 7.62307 6.3428 7.62307 6.3414C7.62307 6.34 7.62307 6.3386 7.62307 6.3372C7.62307 6.3358 7.62307 6.3344 7.62307 6.33301C7.62307 6.33161 7.62307 6.33022 7.62307 6.32882C7.62307 6.32743 7.62307 6.32604 7.62307 6.32465C7.62307 6.32325 7.62307 6.32187 7.62307 6.32048C7.62307 6.31909 7.62307 6.3177 7.62307 6.31631C7.62307 6.31493 7.62307 6.31354 7.62307 6.31216C7.62307 6.31078 7.62307 6.30939 7.62307 6.30801C7.62307 6.30663 7.62307 6.30525 7.62307 6.30387C7.62307 6.3025 7.62307 6.30112 7.62307 6.29974C7.62307 6.29837 7.62307 6.29699 7.62307 6.29562C7.62307 6.29425 7.62307 6.29287 7.62307 6.2915C7.62307 6.29013 7.62307 6.28876 7.62307 6.28739C7.62307 6.28603 7.62307 6.28466 7.62307 6.28329C7.62307 6.28193 7.62307 6.28056 7.62307 6.2792C7.62307 6.27784 7.62307 6.27647 7.62307 6.27511C7.62307 6.27375 7.62307 6.27239 7.62307 6.27104C7.62307 6.26968 7.62307 6.26832 7.62307 6.26696C7.62307 6.26561 7.62307 6.26426 7.62307 6.2629C7.62307 6.26155 7.62307 6.2602 7.62307 6.25885C7.62307 6.2575 7.62307 6.25615 7.62307 6.2548C7.62307 6.25345 7.62307 6.2521 7.62307 6.25076C7.62307 6.24941 7.62307 6.24807 7.62307 6.24673C7.62307 6.24538 7.62307 6.24404 7.62307 6.2427C7.62307 6.24136 7.62307 6.24002 7.62307 6.23869C7.62307 6.23735 7.62307 6.23601 7.62307 6.23468C7.62307 6.23334 7.62307 6.23201 7.62307 6.23067C7.62307 6.22934 7.62307 6.22801 7.62307 6.22668C7.62307 6.22535 7.62307 6.22402 7.62307 6.22269C7.62307 6.22137 7.62307 6.22004 7.62307 6.21871C7.62307 6.21739 7.62307 6.21607 7.62307 6.21474C7.62307 6.21342 7.62307 6.2121 7.62307 6.21078C7.62307 6.20946 7.62307 6.20814 7.62307 6.20682C7.62307 6.20551 7.62307 6.20419 7.62307 6.20288C7.62307 6.20156 7.62307 6.20025 7.62307 6.19894C7.62307 6.19762 7.62307 6.19631 7.62307 6.195C7.62307 6.19369 7.62307 6.19238 7.62307 6.19108C7.62307 6.18977 7.62307 6.18846 7.62307 6.18716C7.62307 6.18585 7.62307 6.18455 7.62307 6.18325C7.62307 6.18195 7.62307 6.18065 7.62307 6.17935C7.62307 6.17805 7.62307 6.17675 7.62307 6.17545C7.62307 6.17415 7.62307 6.17286 7.62307 6.17156C7.62307 6.17027 7.62307 6.16898 7.62307 6.16768C7.62307 6.16639 7.62307 6.1651 7.62307 6.16381C7.62307 6.16252 7.62307 6.16123 7.62307 6.15995C7.62307 6.15866 7.62307 6.15738 7.62307 6.15609C7.62307 6.15481 7.62307 6.15352 7.62307 6.15224C7.62307 6.15096 7.62307 6.14968 7.62307 6.1484C7.62307 6.14712 7.62307 6.14584 7.62307 6.14457C7.62307 6.14329 7.62307 6.14201 7.62307 6.14074C7.62307 6.13947 7.62307 6.13819 7.62307 6.13692C7.62307 6.13565 7.62307 6.13438 7.62307 6.13311C7.62307 6.13184 7.62307 6.13057 7.62307 6.12931C7.62307 6.12804 7.62307 6.12678 7.62307 6.12551C7.62307 6.12425 7.62307 6.12299 7.62307 6.12172C7.62307 6.12046 7.62307 6.1192 7.62307 6.11794C7.62307 6.11668 7.62307 6.11543 7.62307 6.11417C7.62307 6.11291 7.62307 6.11166 7.62307 6.11041C7.62307 6.10915 7.62307 6.1079 7.62307 6.10665C7.62307 6.1054 7.62307 6.10415 7.62307 6.1029C7.62307 6.10165 7.62307 6.1004 7.62307 6.09916C7.62307 6.09791 7.62307 6.09667 7.62307 6.09542C7.62307 6.09418 7.62307 6.09294 7.62307 6.09169C7.62307 6.09045 7.62307 6.08921 7.62307 6.08798C7.62307 6.08674 7.62307 6.0855 7.62307 6.08426C7.62307 6.08303 7.62307 6.08179 7.62307 6.08056C7.62307 6.07933 7.62307 6.07809 7.62307 6.07686C7.62307 6.07563 7.62307 6.0744 7.62307 6.07317C7.62307 6.07195 7.62307 6.07072 7.62307 6.06949C7.62307 6.06827 7.62307 6.06704 7.62307 6.06582C7.62307 6.0646 7.62307 6.06337 7.62307 6.06215C7.62307 6.06093 7.62307 6.05971 7.62307 6.0585C7.62307 6.05728 7.62307 6.05606 7.62307 6.05484C7.62307 6.05363 7.62307 6.05241 7.62307 6.0512C7.62307 6.04999 7.62307 6.04878 7.62307 6.04757C7.62307 6.04636 7.62307 6.04515 7.62307 6.04394C7.62307 6.04273 7.62307 6.04152 7.62307 6.04032C7.62307 6.03911 7.62307 6.03791 7.62307 6.03671C7.62307 6.0355 7.62307 6.0343 7.62307 6.0331C7.62307 6.0319 7.62307 6.0307 7.62307 6.0295C7.62307 6.02831 7.62307 6.02711 7.62307 6.02591C7.62307 6.02472 7.62307 6.02353 7.62307 6.02233C7.62307 6.02114 7.62307 6.01995 7.62307 6.01876C7.62307 6.01757 7.62307 6.01638 7.62307 6.01519C7.62307 6.014 7.62307 6.01282 7.62307 6.01163C7.62307 6.01045 7.62307 6.00926 7.62307 6.00808C7.62307 6.0069 7.62307 6.00572 7.62307 6.00454C7.62307 6.00336 7.62307 6.00218 7.62307 6.001C7.62307 5.99982 7.62307 5.99865 7.62307 5.99747C7.62307 5.9963 7.62307 5.99512 7.62307 5.99395C7.62307 5.99278 7.62307 5.99161 7.62307 5.99044C7.62307 5.98927 7.62307 5.9881 7.62307 5.98693C7.62307 5.98577 7.62307 5.9846 7.62307 5.98343C7.62307 5.98227 7.62307 5.98111 7.62307 5.97994C7.62307 5.97878 7.62307 5.97762 7.62307 5.97646C7.62307 5.9753 7.62307 5.97414 7.62307 5.97299C7.62307 5.97183 7.62307 5.97067 7.62307 5.96952C7.62307 5.96836 7.62307 5.96721 7.62307 5.96606C7.62307 5.96491 7.62307 5.96376 7.62307 5.96261C7.62307 5.96146 7.62307 5.96031 7.62307 5.95916C7.62307 5.95802 7.62307 5.95687 7.62307 5.95573C7.62307 5.95458 7.62307 5.95344 7.62307 5.9523C7.62307 5.95115 7.62307 5.95001 7.62307 5.94887C7.62307 5.94774 7.62307 5.9466 7.62307 5.94546C7.62307 5.94432 7.62307 5.94319 7.62307 5.94205C7.62307 5.94092 7.62307 5.93979 7.62307 5.93866C7.62307 5.93752 7.62307 5.93639 7.62307 5.93526C7.62307 5.93414 7.62307 5.93301 7.62307 5.93188C7.62307 5.93075 7.62307 5.92963 7.62307 5.92851C7.62307 5.92738 7.62307 5.92626 7.62307 5.92514C7.62307 5.92402 7.62307 5.9229 7.62307 5.92178C7.62307 5.92066 7.62307 5.91954 7.62307 5.91842C7.62307 5.91731 7.62307 5.91619 7.62307 5.91508C7.62307 5.91396 7.62307 5.91285 7.62307 5.91174C7.62307 5.91063 7.62307 5.90952 7.62307 5.90841C7.62307 5.9073 7.62307 5.90619 7.62307 5.90509C7.62307 5.90398 7.62307 5.90288 7.62307 5.90177C7.62307 5.90067 7.62307 5.89957 7.62307 5.89847C7.62307 5.89737 7.62307 5.89627 7.62307 5.89517C7.62307 5.89407 7.62307 5.89297 7.62307 5.89187C7.62307 5.89078 7.62307 5.88968 7.62307 5.88859C7.62307 5.8875 7.62307 5.8864 7.62307 5.88531C7.62307 5.88422 7.62307 5.88313 7.62307 5.88204C7.62307 5.88096 7.62307 5.87987 7.62307 5.87878C7.62307 5.8777 7.62307 5.87661 7.62307 5.87553C7.62307 5.87445 7.62307 5.87336 7.62307 5.87228C7.62307 5.8712 7.62307 5.87012 7.62307 5.86905C7.62307 5.86797 7.62307 5.86689 7.62307 5.86581C7.62307 5.86474 7.62307 5.86366 7.62307 5.86259C7.62307 5.86152 7.62307 5.86045 7.62307 5.85938C7.62307 5.8583 7.62307 5.85724 7.62307 5.85617C7.62307 5.8551 7.62307 5.85403 7.62307 5.85297C7.62307 5.8519 7.62307 5.85084 7.62307 5.84977C7.62307 5.84871 7.62307 5.84765 7.62307 5.84659C7.62307 5.84553 7.62307 5.84447 7.62307 5.84341C7.62307 5.84235 7.62307 5.8413 7.62307 5.84024C7.62307 5.83919 7.62307 5.83813 7.62307 5.83708C7.62307 5.83603 7.62307 5.83498 7.62307 5.83393C7.62307 5.83288 7.62307 5.83183 7.62307 5.83078C7.62307 5.82973 7.62307 5.82868 7.62307 5.82764C7.62307 5.82659 7.62307 5.82555 7.62307 5.82451C7.62307 5.82347 7.62307 5.82242 7.62307 5.82138C7.62307 5.82034 7.62307 5.8193 7.62307 5.81827C7.62307 5.81723 7.62307 5.81619 7.62307 5.81516C7.62307 5.81412 7.62307 5.81309 7.62307 5.81206C7.62307 5.81103 7.62307 5.80999 7.62307 5.80896C7.62307 5.80793 7.62307 5.80691 7.62307 5.80588C7.62307 5.80485 7.62307 5.80383 7.62307 5.8028C7.62307 5.80178 7.62307 5.80075 7.62307 5.79973C7.62307 5.79871 7.62307 5.79769 7.62307 5.79667C7.62307 5.79565 7.62307 5.79463 7.62307 5.79361C7.62307 5.79259 7.62307 5.79158 7.62307 5.79056C7.62307 5.78955 7.62307 5.78854 7.62307 5.78752C7.62307 5.78651 7.62307 5.7855 7.62307 5.78449C7.62307 5.78348 7.62307 5.78247 7.62307 5.78147C7.62307 5.78046 7.62307 5.77945 7.62307 5.77845C7.62307 5.77745 7.62307 5.77644 7.62307 5.77544C7.62307 5.77444 7.62307 5.77344 7.62307 5.77244C7.62307 5.77144 7.62307 5.77044 7.62307 5.76944C7.62307 5.76845 7.62307 5.76745 7.62307 5.76646C7.62307 5.76546 7.62307 5.76447 7.62307 5.76348C7.62307 5.76249 7.62307 5.7615 7.62307 5.76051C7.62307 5.75952 7.62307 5.75853 7.62307 5.75754C7.62307 5.75656 7.62307 5.75557 7.62307 5.75459C7.62307 5.7536 7.62307 5.75262 7.62307 5.75164C7.62307 5.75066 7.62307 5.74968 7.62307 5.7487C7.62307 5.74772 7.62307 5.74674 7.62307 5.74577C7.62307 5.74479 7.62307 5.74381 7.62307 5.74284C7.62307 5.74187 7.62307 5.74089 7.62307 5.73992C7.62307 5.73895 7.62307 5.73798 7.62307 5.73701C7.62307 5.73604 7.62307 5.73508 7.62307 5.73411C7.62307 5.73314 7.62307 5.73218 7.62307 5.73121C7.62307 5.73025 7.62307 5.72929 7.62307 5.72833C7.62307 5.72737 7.62307 5.72641 7.62307 5.72545C7.62307 5.72449 7.62307 5.72353 7.62307 5.72257C7.62307 5.72162 7.62307 5.72066 7.62307 5.71971C7.62307 5.71876 7.62307 5.7178 7.62307 5.71685C7.62307 5.7159 7.62307 5.71495 7.62307 5.714C7.62307 5.71306 7.62307 5.71211 7.62307 5.71116C7.62307 5.71022 7.62307 5.70927 7.62307 5.70833C7.62307 5.70739 7.62307 5.70644 7.62307 5.7055C7.62307 5.70456 7.62307 5.70362 7.62307 5.70268C7.62307 5.70175 7.62307 5.70081 7.62307 5.69987C7.62307 5.69894 7.62307 5.698 7.62307 5.69707C7.62307 5.69614 7.62307 5.6952 7.62307 5.69427C7.62307 5.69334 7.62307 5.69241 7.62307 5.69149C7.62307 5.69056 7.62307 5.68963 7.62307 5.6887C7.62307 5.68778 7.62307 5.68686 7.62307 5.68593C7.62307 5.68501 7.62307 5.68409 7.62307 5.68317C7.62307 5.68225 7.62307 5.68133 7.62307 5.68041C7.62307 5.67949 7.62307 5.67857 7.62307 5.67766C7.62307 5.67674 7.62307 5.67583 7.62307 5.67492C7.62307 5.674 7.62307 5.67309 7.62307 5.67218C7.62307 5.67127 7.62307 5.67036 7.62307 5.66946C7.62307 5.66855 7.62307 5.66764 7.62307 5.66674C7.62307 5.66583 7.62307 5.66493 7.62307 5.66402C7.62307 5.66312 7.62307 5.66222 7.62307 5.66132C7.62307 5.66042 7.62307 5.65952 7.62307 5.65862C7.62307 5.65773 7.62307 5.65683 7.62307 5.65593C7.62307 5.65504 7.62307 5.65415 7.62307 5.65325C7.62307 5.65236 7.62307 5.65147 7.62307 5.65058C7.62307 5.64969 7.62307 5.6488 7.62307 5.64791C7.62307 5.64703 7.62307 5.64614 7.62307 5.64526C7.62307 5.64437 7.62307 5.64349 7.62307 5.6426C7.62307 5.64172 7.62307 5.64084 7.62307 5.63996C7.62307 5.63908 7.62307 5.6382 7.62307 5.63733C7.62307 5.63645 7.62307 5.63557 7.62307 5.6347C7.62307 5.63382 7.62307 5.63295 7.62307 5.63208C7.62307 5.63121 7.62307 5.63033 7.62307 5.62947C7.62307 5.6286 7.62307 5.62773 7.62307 5.62686C7.62307 5.62599 7.62307 5.62513 7.62307 5.62426C7.62307 5.6234 7.62307 5.62253 7.62307 5.62167C7.62307 5.62081 7.62307 5.61995 7.62307 5.61909C7.62307 5.61823 7.62307 5.61737 7.62307 5.61652C7.62307 5.61566 7.62307 5.6148 7.62307 5.61395C7.62307 5.6131 7.62307 5.61224 7.62307 5.61139C7.62307 5.61054 7.62307 5.60969 7.62307 5.60884C7.62307 5.60799 7.62307 5.60714 7.62307 5.6063C7.62307 5.60545 7.62307 5.6046 7.62307 5.60376C7.62307 5.60291 7.62307 5.60207 7.62307 5.60123C7.62307 5.60039 7.62307 5.59955 7.62307 5.59871C7.62307 5.59787 7.62307 5.59703 7.62307 5.5962C7.62307 5.59536 7.62307 5.59452 7.62307 5.59369C7.62307 5.59286 7.62307 5.59202 7.62307 5.59119C7.62307 5.59036 7.62307 5.58953 7.62307 5.5887C7.62307 5.58787 7.62307 5.58705 7.62307 5.58622C7.62307 5.58539 7.62307 5.58457 7.62307 5.58374C7.62307 5.58292 7.62307 5.5821 7.62307 5.58128C7.62307 5.58045 7.62307 5.57963 7.62307 5.57882C7.62307 5.578 7.62307 5.57718 7.62307 5.57636C7.62307 5.57555 7.62307 5.57473 7.62307 5.57392C7.62307 5.57311 7.62307 5.57229 7.62307 5.57148C7.62307 5.57067 7.62307 5.56986 7.62307 5.56905C7.62307 5.56824 7.62307 5.56744 7.62307 5.56663C7.62307 5.56582 7.62307 5.56502 7.62307 5.56422C7.62307 5.56341 7.62307 5.56261 7.62307 5.56181C7.62307 5.56101 7.62307 5.56021 7.62307 5.55941C7.62307 5.55861 7.62307 5.55782 7.62307 5.55702C7.62307 5.55622 7.62307 5.55543 7.62307 5.55464C7.62307 5.55384 7.62307 5.55305 7.62307 5.55226C7.62307 5.55147 7.62307 5.55068 7.62307 5.54989C7.62307 5.5491 7.62307 5.54832 7.62307 5.54753C7.62307 5.54675 7.62307 5.54596 7.62307 5.54518C7.62307 5.54439 7.62307 5.54361 7.62307 5.54283C7.62307 5.54205 7.62307 5.54127 7.62307 5.54049C7.62307 5.53972 7.62307 5.53894 7.62307 5.53816C7.62307 5.53739 7.62307 5.53661 7.62307 5.53584C7.62307 5.53507 7.62307 5.5343 7.62307 5.53353C7.62307 5.53276 7.62307 5.53199 7.62307 5.53122C7.62307 5.53045 7.62307 5.52969 7.62307 5.52892C7.62307 5.52815 7.62307 5.52739 7.62307 5.52663C7.62307 5.52587 7.62307 5.5251 7.62307 5.52434C7.62307 5.52358 7.62307 5.52282 7.62307 5.52207C7.62307 5.52131 7.62307 5.52055 7.62307 5.5198C7.62307 5.51904 7.62307 5.51829 7.62307 5.51754C7.62307 5.51678 7.62307 5.51603 7.62307 5.51528C7.62307 5.51453 7.62307 5.51378 7.62307 5.51304C7.62307 5.51229 7.62307 5.51154 7.62307 5.5108C7.62307 5.51005 7.62307 5.50931 7.62307 5.50857C7.62307 5.50782 7.62307 5.50708 7.62307 5.50634C7.62307 5.5056 7.62307 5.50487 7.62307 5.50413C7.62307 5.50339 7.62307 5.50265 7.62307 5.50192C7.62307 5.50118 7.62307 5.50045 7.62307 5.49972C7.62307 5.49899 7.62307 5.49826 7.62307 5.49753C7.62307 5.4968 7.62307 5.49607 7.62307 5.49534C7.62307 5.49461 7.62307 5.49389 7.62307 5.49316C7.62307 5.49244 7.62307 5.49172 7.62307 5.49099C7.62307 5.49027 7.62307 5.48955 7.62307 5.48883C7.62307 5.48811 7.62307 5.48739 7.62307 5.48668C7.62307 5.48596 7.62307 5.48524 7.62307 5.48453C7.62307 5.48382 7.62307 5.4831 7.62307 5.48239C7.62307 5.48168 7.62307 5.48097 7.62307 5.48026C7.62307 5.47955 7.62307 5.47884 7.62307 5.47813C7.62307 5.47743 7.62307 5.47672 7.62307 5.47602C7.62307 5.47531 7.62307 5.47461 7.62307 5.47391C7.62307 5.47321 7.62307 5.47251 7.62307 5.47181C7.62307 5.47111 7.62307 5.47041 7.62307 5.46971C7.62307 5.46902 7.62307 5.46832 7.62307 5.46763C7.62307 5.46693 7.62307 5.46624 7.62307 5.46555C7.62307 5.46486 7.62307 5.46417 7.62307 5.46348C7.62307 5.46279 7.62307 5.4621 7.62307 5.46142C7.62307 5.46073 7.62307 5.46004 7.62307 5.45936C7.62307 5.45868 7.62307 5.45799 7.62307 5.45731C7.62307 5.45663 7.62307 5.45595 7.62307 5.45527C7.62307 5.45459 7.62307 5.45392 7.62307 5.45324C7.62307 5.45256 7.62307 5.45189 7.62307 5.45122C7.62307 5.45054 7.62307 5.44987 7.62307 5.4492C7.62307 5.44853 7.62307 5.44786 7.62307 5.44719C7.62307 5.44652 7.62307 5.44585 7.62307 5.44519C7.62307 5.44452 7.62307 5.44386 7.62307 5.44319C7.62307 5.44253 7.62307 5.44187 7.62307 5.44121C7.62307 5.44054 7.62307 5.43989 7.62307 5.43923C7.62307 5.43857 7.62307 5.43791 7.62307 5.43725C7.62307 5.4366 7.62307 5.43594 7.62307 5.43529C7.62307 5.43464 7.62307 5.43399 7.62307 5.43334C7.62307 5.43268 7.62307 5.43203 7.62307 5.43139C7.62307 5.43074 7.62307 5.43009 7.62307 5.42945C7.62307 5.4288 7.62307 5.42816 7.62307 5.42751C7.62307 5.42687 7.62307 5.42623 7.62307 5.42559C7.62307 5.42495 7.62307 5.42431 7.62307 5.42367C7.62307 5.42303 7.62307 5.42239 7.62307 5.42176C7.62307 5.42112 7.62307 5.42049 7.62307 5.41986C7.62307 5.41922 7.62307 5.41859 7.62307 5.41796C7.62307 5.41733 7.62307 5.4167 7.62307 5.41607C7.62307 5.41544 7.62307 5.41482 7.62307 5.41419C7.62307 5.41357 7.62307 5.41294 7.62307 5.41232C7.62307 5.4117 7.62307 5.41108 7.62307 5.41046C7.62307 5.40984 7.62307 5.40922 7.62307 5.4086C7.62307 5.40798 7.62307 5.40736 7.62307 5.40675C7.62307 5.40613 7.62307 5.40552 7.62307 5.40491C7.62307 5.40429 7.62307 5.40368 7.62307 5.40307C7.62307 5.40246 7.62307 5.40185 7.62307 5.40125C7.62307 5.40064 7.62307 5.40003 7.62307 5.39943C7.62307 5.39882 7.62307 5.39822 7.62307 5.39762C7.62307 5.39701 7.62307 5.39641 7.62307 5.39581C7.62307 5.39521 7.62307 5.39462 7.62307 5.39402C7.62307 5.39342 7.62307 5.39282 7.62307 5.39223C7.62307 5.39163 7.62307 5.39104 7.62307 5.39045C7.62307 5.38986 7.62307 5.38927 7.62307 5.38868C7.62307 5.38809 7.62307 5.3875 7.62307 5.38691C7.62307 5.38632 7.62307 5.38574 7.62307 5.38515C7.62307 5.38457 7.62307 5.38398 7.62307 5.3834C7.62307 5.38282 7.62307 5.38224 7.62307 5.38166C7.62307 5.38108 7.62307 5.3805 7.62307 5.37993C7.62307 5.37935 7.62307 5.37877 7.62307 5.3782C7.62307 5.37762 7.62307 5.37705 7.62307 5.37648C7.62307 5.37591 7.62307 5.37534 7.62307 5.37477C7.62307 5.3742 7.62307 5.37363 7.62307 5.37306C7.62307 5.3725 7.62307 5.37193 7.62307 5.37137C7.62307 5.3708 7.62307 5.37024 7.62307 5.36968C7.62307 5.36911 7.62307 5.36855 7.62307 5.36799C7.62307 5.36744 7.62307 5.36688 7.62307 5.36632C7.62307 5.36576 7.62307 5.36521 7.62307 5.36465C7.62307 5.3641 7.62307 5.36355 7.62307 5.363C7.62307 5.36244 7.62307 5.36189 7.62307 5.36135C7.62307 5.3608 7.62307 5.36025 7.62307 5.3597C7.62307 5.35916 7.62307 5.35861 7.62307 5.35807C7.62307 5.35752 7.62307 5.35698 7.62307 5.35644C7.62307 5.3559 7.62307 5.35536 7.62307 5.35482C7.62307 5.35428 7.62307 5.35374 7.62307 5.35321C7.62307 5.35267 7.62307 5.35213 7.62307 5.3516C7.62307 5.35107 7.62307 5.35053 7.62307 5.35C7.62307 5.34947 7.62307 5.34894 7.62307 5.34841C7.62307 5.34788 7.62307 5.34736 7.62307 5.34683C7.62307 5.3463 7.62307 5.34578 7.62307 5.34526C7.62307 5.34473 7.62307 5.34421 7.62307 5.34369C7.62307 5.34317 7.62307 5.34265 7.62307 5.34213C7.62307 5.34161 7.62307 5.34109 7.62307 5.34058C7.62307 5.34006 7.62307 5.33955 7.62307 5.33903C7.62307 5.33852 7.62307 5.33801 7.62307 5.3375C7.62307 5.33699 7.62307 5.33648 7.62307 5.33597C7.62307 5.33546 7.62307 5.33495 7.62307 5.33445C7.62307 5.33394 7.62307 5.33344 7.62307 5.33293C7.62307 5.33243 7.62307 5.33193 7.62307 5.33143C7.62307 5.33093 7.62307 5.33043 7.62307 5.32993C7.62307 5.32943 7.62307 5.32893 7.62307 5.32844C7.62307 5.32794 7.62307 5.32745 7.62307 5.32696C7.62307 5.32646 7.62307 5.32597 7.62307 5.32548C7.62307 5.32499 7.62307 5.3245 7.62307 5.32401C7.62307 5.32352 7.62307 5.32304 7.62307 5.32255C7.62307 5.32207 7.62307 5.32158 7.62307 5.3211C7.62307 5.32062 7.62307 5.32014 7.62307 5.31966C7.62307 5.31917 7.62307 5.3187 7.62307 5.31822C7.62307 5.31774 7.62307 5.31726 7.62307 5.31679C7.62307 5.31631 7.62307 5.31584 7.62307 5.31537C7.62307 5.31489 7.62307 5.31442 7.62307 5.31395C7.62307 5.31348 7.62307 5.31301 7.62307 5.31255C7.62307 5.31208 7.62307 5.31161 7.62307 5.31115C7.62307 5.31068 7.62307 5.31022 7.62307 5.30975C7.62307 5.30929 7.62307 5.30883 7.62307 5.30837C7.62307 5.30791 7.62307 5.30745 7.62307 5.30699C7.62307 5.30654 7.62307 5.30608 7.62307 5.30563C7.62307 5.30517 7.62307 5.30472 7.62307 5.30427C7.62307 5.30381 7.62307 5.30336 7.62307 5.30291C7.62307 5.30246 7.62307 5.30201 7.62307 5.30157C7.62307 5.30112 7.62307 5.30067 7.62307 5.30023C7.62307 5.29978 7.62307 5.29934 7.62307 5.2989C7.62307 5.29846 7.62307 5.29802 7.62307 5.29758C7.62307 5.29714 7.62307 5.2967 7.62307 5.29626C7.62307 5.29582 7.62307 5.29539 7.62307 5.29495C7.62307 5.29452 7.62307 5.29409 7.62307 5.29365C7.62307 5.29322 7.62307 5.29279 7.62307 5.29236C7.62307 5.29193 7.62307 5.2915 7.62307 5.29108C7.62307 5.29065 7.62307 5.29022 7.62307 5.2898C7.62307 5.28937 7.62307 5.28895 7.62307 5.28853C7.62307 5.28811 7.62307 5.28769 7.62307 5.28727C7.62307 5.28685 7.62307 5.28643 7.62307 5.28601C7.62307 5.2856 7.62307 5.28518 7.62307 5.28477C7.62307 5.28435 7.62307 5.28394 7.62307 5.28353C7.62307 5.28312 7.62307 5.28271 7.62307 5.2823C7.62307 5.28189 7.62307 5.28148 7.62307 5.28107C7.62307 5.28067 7.62307 5.28026 7.62307 5.27986C7.62307 5.27945 7.62307 5.27905 7.62307 5.27865C7.62307 5.27825 7.62307 5.27785 7.62307 5.27745C7.62307 5.27705 7.62307 5.27665 7.62307 5.27626C7.62307 5.27586 7.62307 5.27547 7.62307 5.27507C7.62307 5.27468 7.62307 5.27428 7.62307 5.27389C7.62307 5.2735 7.62307 5.27311 7.62307 5.27272C7.62307 5.27233 7.62307 5.27195 7.62307 5.27156C7.62307 5.27117 7.62307 5.27079 7.62307 5.27041C7.62307 5.27002 7.62307 5.26964 7.62307 5.26926C7.62307 5.26888 7.62307 5.2685 7.62307 5.26812C7.62307 5.26774 7.62307 5.26736 7.62307 5.26699C7.62307 5.26661 7.62307 5.26624 7.62307 5.26586C7.62307 5.26549 7.62307 5.26512 7.62307 5.26475C7.62307 5.26438 7.62307 5.26401 7.62307 5.26364C7.62307 5.26327 7.62307 5.2629 7.62307 5.26254C7.62307 5.26217 7.62307 5.26181 7.62307 5.26144C7.62307 5.26108 7.62307 5.26072 7.62307 5.26036C7.62307 5.25999 7.62307 5.25964 7.62307 5.25928C7.62307 5.25892 7.62307 5.25856 7.62307 5.25821C7.62307 5.25785 7.62307 5.2575 7.62307 5.25714C7.62307 5.25679 7.62307 5.25644 7.62307 5.25609C7.62307 5.25574 7.62307 5.25539 7.62307 5.25504C7.62307 5.25469 7.62307 5.25434 7.62307 5.254C7.62307 5.25365 7.62307 5.25331 7.62307 5.25297C7.62307 5.25262 7.62307 5.25228 7.62307 5.25194C7.62307 5.2516 7.62307 5.25126 7.62307 5.25092C7.62307 5.25059 7.62307 5.25025 7.62307 5.24991C7.62307 5.24958 7.62307 5.24924 7.62307 5.24891C7.62307 5.24858 7.62307 5.24825 7.62307 5.24792C7.62307 5.24759 7.62307 5.24726 7.62307 5.24693C7.62307 5.2466 7.62307 5.24628 7.62307 5.24595C7.62307 5.24563 7.62307 5.2453 7.62307 5.24498C7.62307 5.24466 7.62307 5.24434 7.62307 5.24402C7.62307 5.2437 7.62307 5.24338 7.62307 5.24306C7.62307 5.24274 7.62307 5.24242 7.62307 5.24211C7.62307 5.2418 7.62307 5.24148 7.62307 5.24117C7.62307 5.24086 7.62307 5.24055 7.62307 5.24024C7.62307 5.23993 7.62307 5.23962 7.62307 5.23931C7.62307 5.239 7.62307 5.2387 7.62307 5.23839C7.62307 5.23809 7.62307 5.23778 7.62307 5.23748C7.62307 5.23718 7.62307 5.23688 7.62307 5.23658C7.62307 5.23628 7.62307 5.23598 7.62307 5.23568C7.62307 5.23538 7.62307 5.23509 7.62307 5.23479C7.62307 5.2345 7.62307 5.23421 7.62307 5.23391C7.62307 5.23362 7.62307 5.23333 7.62307 5.23304C7.62307 5.23275 7.62307 5.23246 7.62307 5.23218C7.62307 5.23189 7.62307 5.2316 7.62307 5.23132C7.62307 5.23104 7.62307 5.23075 7.62307 5.23047C7.62307 5.23019 7.62307 5.22991 7.62307 5.22963C7.62307 5.22935 7.62307 5.22907 7.62307 5.22879C7.62307 5.22852 7.62307 5.22824 7.62307 5.22797C7.62307 5.22769 7.62307 5.22742 7.62307 5.22715C7.62307 5.22688 7.62307 5.22661 7.62307 5.22634C7.62307 5.22607 7.62307 5.2258 7.62307 5.22553C7.62307 5.22527 7.62307 5.225 7.62307 5.22474C7.62307 5.22447 7.62307 5.22421 7.62307 5.22395C7.62307 5.22369 7.62307 5.22343 7.62307 5.22317C7.62307 5.22291 7.62307 5.22265 7.62307 5.22239C7.62307 5.22214 7.62307 5.22188 7.62307 5.22163C7.62307 5.22137 7.62307 5.22112 7.62307 5.22087C7.62307 5.22062 7.62307 5.22037 7.62307 5.22012C7.62307 5.21987 7.62307 5.21962 7.62307 5.21938C7.62307 5.21913 7.62307 5.21889 7.62307 5.21864C7.62307 5.2184 7.62307 5.21816 7.62307 5.21792C7.62307 5.21767 7.62307 5.21743 7.62307 5.2172C7.62307 5.21696 7.62307 5.21672 7.62307 5.21648C7.62307 5.21625 7.62307 5.21601 7.62307 5.21578C7.62307 5.21554 7.62307 5.21531 7.62307 5.21508C7.62307 5.21485 7.62307 5.21462 7.62307 5.21439C7.62307 5.21416 7.62307 5.21394 7.62307 5.21371C7.62307 5.21348 7.62307 5.21326 7.62307 5.21304C7.62307 5.21281 7.62307 5.21259 7.62307 5.21237C7.62307 5.21215 7.62307 5.21193 7.62307 5.21171C7.62307 5.21149 7.62307 5.21128 7.62307 5.21106C7.62307 5.21084 7.62307 5.21063 7.62307 5.21042C7.62307 5.2102 7.62307 5.20999 7.62307 5.20978C7.62307 5.20957 7.62307 5.20936 7.62307 5.20915C7.62307 5.20894 7.62307 5.20874 7.62307 5.20853C7.62307 5.20833 7.62307 5.20812 7.62307 5.20792C7.62307 5.20772 7.62307 5.20751 7.62307 5.20731C7.62307 5.20711 7.62307 5.20691 7.62307 5.20672C7.62307 5.20652 7.62307 5.20632 7.62307 5.20613C7.62307 5.20593 7.62307 5.20574 7.62307 5.20554C7.62307 5.20535 7.62307 5.20516 7.62307 5.20497C7.62307 5.20478 7.62307 5.20459 7.62307 5.2044C7.62307 5.20421 7.62307 5.20403 7.62307 5.20384C7.62307 5.20366 7.62307 5.20347 7.62307 5.20329C7.62307 5.20311 7.62307 5.20293 7.62307 5.20275C7.62307 5.20257 7.62307 5.20239 7.62307 5.20221C7.62307 5.20203 7.62307 5.20185 7.62307 5.20168C7.62307 5.2015 7.62307 5.20133 7.62307 5.20116C7.62307 5.20099 7.62307 5.20081 7.62307 5.20064C7.62307 5.20047 7.62307 5.20031 7.62307 5.20014C7.62307 5.19997 7.62307 5.1998 7.62307 5.19964C7.62307 5.19947 7.62307 5.19931 7.62307 5.19915C7.62307 5.19899 7.62307 5.19883 7.62307 5.19867C7.62307 5.19851 7.62307 5.19835 7.62307 5.19819C7.62307 5.19803 7.62307 5.19788 7.62307 5.19772C7.62307 5.19757 7.62307 5.19741 7.62307 5.19726C7.62307 5.19711 7.62307 5.19696 7.62307 5.19681C7.62307 5.19666 7.62307 5.19651 7.62307 5.19636C7.62307 5.19622 7.62307 5.19607 7.62307 5.19593C7.62307 5.19578 7.62307 5.19564 7.62307 5.1955C7.62307 5.19535 7.62307 5.19521 7.62307 5.19507C7.62307 5.19493 7.62307 5.1948 7.62307 5.19466C7.62307 5.19452 7.62307 5.19439 7.62307 5.19425C7.62307 5.19412 7.62307 5.19399 7.62307 5.19385C7.62307 5.19372 7.62307 5.19359 7.62307 5.19346C7.62307 5.19333 7.62307 5.1932 7.62307 5.19308C7.62307 5.19295 7.62307 5.19283 7.62307 5.1927C7.62307 5.19258 7.62307 5.19245 7.62307 5.19233C7.62307 5.19221 7.62307 5.19209 7.62307 5.19197C7.62307 5.19185 7.62307 5.19173 7.62307 5.19162C7.62307 5.1915 7.62307 5.19139 7.62307 5.19127C7.62307 5.19116 7.62307 5.19105 7.62307 5.19093C7.62307 5.19082 7.62307 5.19071 7.62307 5.1906H6.87307C6.87307 5.19071 6.87307 5.19082 6.87307 5.19093C6.87307 5.19105 6.87307 5.19116 6.87307 5.19127C6.87307 5.19139 6.87307 5.1915 6.87307 5.19162C6.87307 5.19173 6.87307 5.19185 6.87307 5.19197C6.87307 5.19209 6.87307 5.19221 6.87307 5.19233C6.87307 5.19245 6.87307 5.19258 6.87307 5.1927C6.87307 5.19283 6.87307 5.19295 6.87307 5.19308C6.87307 5.1932 6.87307 5.19333 6.87307 5.19346C6.87307 5.19359 6.87307 5.19372 6.87307 5.19385C6.87307 5.19399 6.87307 5.19412 6.87307 5.19425C6.87307 5.19439 6.87307 5.19452 6.87307 5.19466C6.87307 5.1948 6.87307 5.19493 6.87307 5.19507C6.87307 5.19521 6.87307 5.19535 6.87307 5.1955C6.87307 5.19564 6.87307 5.19578 6.87307 5.19593C6.87307 5.19607 6.87307 5.19622 6.87307 5.19636C6.87307 5.19651 6.87307 5.19666 6.87307 5.19681C6.87307 5.19696 6.87307 5.19711 6.87307 5.19726C6.87307 5.19741 6.87307 5.19757 6.87307 5.19772C6.87307 5.19788 6.87307 5.19803 6.87307 5.19819C6.87307 5.19835 6.87307 5.19851 6.87307 5.19867C6.87307 5.19883 6.87307 5.19899 6.87307 5.19915C6.87307 5.19931 6.87307 5.19947 6.87307 5.19964C6.87307 5.1998 6.87307 5.19997 6.87307 5.20014C6.87307 5.20031 6.87307 5.20047 6.87307 5.20064C6.87307 5.20081 6.87307 5.20099 6.87307 5.20116C6.87307 5.20133 6.87307 5.2015 6.87307 5.20168C6.87307 5.20185 6.87307 5.20203 6.87307 5.20221C6.87307 5.20239 6.87307 5.20257 6.87307 5.20275C6.87307 5.20293 6.87307 5.20311 6.87307 5.20329C6.87307 5.20347 6.87307 5.20366 6.87307 5.20384C6.87307 5.20403 6.87307 5.20421 6.87307 5.2044C6.87307 5.20459 6.87307 5.20478 6.87307 5.20497C6.87307 5.20516 6.87307 5.20535 6.87307 5.20554C6.87307 5.20574 6.87307 5.20593 6.87307 5.20613C6.87307 5.20632 6.87307 5.20652 6.87307 5.20672C6.87307 5.20691 6.87307 5.20711 6.87307 5.20731C6.87307 5.20751 6.87307 5.20772 6.87307 5.20792C6.87307 5.20812 6.87307 5.20833 6.87307 5.20853C6.87307 5.20874 6.87307 5.20894 6.87307 5.20915C6.87307 5.20936 6.87307 5.20957 6.87307 5.20978C6.87307 5.20999 6.87307 5.2102 6.87307 5.21042C6.87307 5.21063 6.87307 5.21084 6.87307 5.21106C6.87307 5.21128 6.87307 5.21149 6.87307 5.21171C6.87307 5.21193 6.87307 5.21215 6.87307 5.21237C6.87307 5.21259 6.87307 5.21281 6.87307 5.21304C6.87307 5.21326 6.87307 5.21348 6.87307 5.21371C6.87307 5.21394 6.87307 5.21416 6.87307 5.21439C6.87307 5.21462 6.87307 5.21485 6.87307 5.21508C6.87307 5.21531 6.87307 5.21554 6.87307 5.21578C6.87307 5.21601 6.87307 5.21625 6.87307 5.21648C6.87307 5.21672 6.87307 5.21696 6.87307 5.2172C6.87307 5.21743 6.87307 5.21767 6.87307 5.21792C6.87307 5.21816 6.87307 5.2184 6.87307 5.21864C6.87307 5.21889 6.87307 5.21913 6.87307 5.21938C6.87307 5.21962 6.87307 5.21987 6.87307 5.22012C6.87307 5.22037 6.87307 5.22062 6.87307 5.22087C6.87307 5.22112 6.87307 5.22137 6.87307 5.22163C6.87307 5.22188 6.87307 5.22214 6.87307 5.22239C6.87307 5.22265 6.87307 5.22291 6.87307 5.22317C6.87307 5.22343 6.87307 5.22369 6.87307 5.22395C6.87307 5.22421 6.87307 5.22447 6.87307 5.22474C6.87307 5.225 6.87307 5.22527 6.87307 5.22553C6.87307 5.2258 6.87307 5.22607 6.87307 5.22634C6.87307 5.22661 6.87307 5.22688 6.87307 5.22715C6.87307 5.22742 6.87307 5.22769 6.87307 5.22797C6.87307 5.22824 6.87307 5.22852 6.87307 5.22879C6.87307 5.22907 6.87307 5.22935 6.87307 5.22963C6.87307 5.22991 6.87307 5.23019 6.87307 5.23047C6.87307 5.23075 6.87307 5.23104 6.87307 5.23132C6.87307 5.2316 6.87307 5.23189 6.87307 5.23218C6.87307 5.23246 6.87307 5.23275 6.87307 5.23304C6.87307 5.23333 6.87307 5.23362 6.87307 5.23391C6.87307 5.23421 6.87307 5.2345 6.87307 5.23479C6.87307 5.23509 6.87307 5.23538 6.87307 5.23568C6.87307 5.23598 6.87307 5.23628 6.87307 5.23658C6.87307 5.23688 6.87307 5.23718 6.87307 5.23748C6.87307 5.23778 6.87307 5.23809 6.87307 5.23839C6.87307 5.2387 6.87307 5.239 6.87307 5.23931C6.87307 5.23962 6.87307 5.23993 6.87307 5.24024C6.87307 5.24055 6.87307 5.24086 6.87307 5.24117C6.87307 5.24148 6.87307 5.2418 6.87307 5.24211C6.87307 5.24242 6.87307 5.24274 6.87307 5.24306C6.87307 5.24338 6.87307 5.2437 6.87307 5.24402C6.87307 5.24434 6.87307 5.24466 6.87307 5.24498C6.87307 5.2453 6.87307 5.24563 6.87307 5.24595C6.87307 5.24628 6.87307 5.2466 6.87307 5.24693C6.87307 5.24726 6.87307 5.24759 6.87307 5.24792C6.87307 5.24825 6.87307 5.24858 6.87307 5.24891C6.87307 5.24924 6.87307 5.24958 6.87307 5.24991C6.87307 5.25025 6.87307 5.25059 6.87307 5.25092C6.87307 5.25126 6.87307 5.2516 6.87307 5.25194C6.87307 5.25228 6.87307 5.25262 6.87307 5.25297C6.87307 5.25331 6.87307 5.25365 6.87307 5.254C6.87307 5.25434 6.87307 5.25469 6.87307 5.25504C6.87307 5.25539 6.87307 5.25574 6.87307 5.25609C6.87307 5.25644 6.87307 5.25679 6.87307 5.25714C6.87307 5.2575 6.87307 5.25785 6.87307 5.25821C6.87307 5.25856 6.87307 5.25892 6.87307 5.25928C6.87307 5.25964 6.87307 5.25999 6.87307 5.26036C6.87307 5.26072 6.87307 5.26108 6.87307 5.26144C6.87307 5.26181 6.87307 5.26217 6.87307 5.26254C6.87307 5.2629 6.87307 5.26327 6.87307 5.26364C6.87307 5.26401 6.87307 5.26438 6.87307 5.26475C6.87307 5.26512 6.87307 5.26549 6.87307 5.26586C6.87307 5.26624 6.87307 5.26661 6.87307 5.26699C6.87307 5.26736 6.87307 5.26774 6.87307 5.26812C6.87307 5.2685 6.87307 5.26888 6.87307 5.26926C6.87307 5.26964 6.87307 5.27002 6.87307 5.27041C6.87307 5.27079 6.87307 5.27117 6.87307 5.27156C6.87307 5.27195 6.87307 5.27233 6.87307 5.27272C6.87307 5.27311 6.87307 5.2735 6.87307 5.27389C6.87307 5.27428 6.87307 5.27468 6.87307 5.27507C6.87307 5.27547 6.87307 5.27586 6.87307 5.27626C6.87307 5.27665 6.87307 5.27705 6.87307 5.27745C6.87307 5.27785 6.87307 5.27825 6.87307 5.27865C6.87307 5.27905 6.87307 5.27945 6.87307 5.27986C6.87307 5.28026 6.87307 5.28067 6.87307 5.28107C6.87307 5.28148 6.87307 5.28189 6.87307 5.2823C6.87307 5.28271 6.87307 5.28312 6.87307 5.28353C6.87307 5.28394 6.87307 5.28435 6.87307 5.28477C6.87307 5.28518 6.87307 5.2856 6.87307 5.28601C6.87307 5.28643 6.87307 5.28685 6.87307 5.28727C6.87307 5.28769 6.87307 5.28811 6.87307 5.28853C6.87307 5.28895 6.87307 5.28937 6.87307 5.2898C6.87307 5.29022 6.87307 5.29065 6.87307 5.29108C6.87307 5.2915 6.87307 5.29193 6.87307 5.29236C6.87307 5.29279 6.87307 5.29322 6.87307 5.29365C6.87307 5.29409 6.87307 5.29452 6.87307 5.29495C6.87307 5.29539 6.87307 5.29582 6.87307 5.29626C6.87307 5.2967 6.87307 5.29714 6.87307 5.29758C6.87307 5.29802 6.87307 5.29846 6.87307 5.2989C6.87307 5.29934 6.87307 5.29978 6.87307 5.30023C6.87307 5.30067 6.87307 5.30112 6.87307 5.30157C6.87307 5.30201 6.87307 5.30246 6.87307 5.30291C6.87307 5.30336 6.87307 5.30381 6.87307 5.30427C6.87307 5.30472 6.87307 5.30517 6.87307 5.30563C6.87307 5.30608 6.87307 5.30654 6.87307 5.30699C6.87307 5.30745 6.87307 5.30791 6.87307 5.30837C6.87307 5.30883 6.87307 5.30929 6.87307 5.30975C6.87307 5.31022 6.87307 5.31068 6.87307 5.31115C6.87307 5.31161 6.87307 5.31208 6.87307 5.31255C6.87307 5.31301 6.87307 5.31348 6.87307 5.31395C6.87307 5.31442 6.87307 5.31489 6.87307 5.31537C6.87307 5.31584 6.87307 5.31631 6.87307 5.31679C6.87307 5.31726 6.87307 5.31774 6.87307 5.31822C6.87307 5.3187 6.87307 5.31917 6.87307 5.31966C6.87307 5.32014 6.87307 5.32062 6.87307 5.3211C6.87307 5.32158 6.87307 5.32207 6.87307 5.32255C6.87307 5.32304 6.87307 5.32352 6.87307 5.32401C6.87307 5.3245 6.87307 5.32499 6.87307 5.32548C6.87307 5.32597 6.87307 5.32646 6.87307 5.32696C6.87307 5.32745 6.87307 5.32794 6.87307 5.32844C6.87307 5.32893 6.87307 5.32943 6.87307 5.32993C6.87307 5.33043 6.87307 5.33093 6.87307 5.33143C6.87307 5.33193 6.87307 5.33243 6.87307 5.33293C6.87307 5.33344 6.87307 5.33394 6.87307 5.33445C6.87307 5.33495 6.87307 5.33546 6.87307 5.33597C6.87307 5.33648 6.87307 5.33699 6.87307 5.3375C6.87307 5.33801 6.87307 5.33852 6.87307 5.33903C6.87307 5.33955 6.87307 5.34006 6.87307 5.34058C6.87307 5.34109 6.87307 5.34161 6.87307 5.34213C6.87307 5.34265 6.87307 5.34317 6.87307 5.34369C6.87307 5.34421 6.87307 5.34473 6.87307 5.34526C6.87307 5.34578 6.87307 5.3463 6.87307 5.34683C6.87307 5.34736 6.87307 5.34788 6.87307 5.34841C6.87307 5.34894 6.87307 5.34947 6.87307 5.35C6.87307 5.35053 6.87307 5.35107 6.87307 5.3516C6.87307 5.35213 6.87307 5.35267 6.87307 5.35321C6.87307 5.35374 6.87307 5.35428 6.87307 5.35482C6.87307 5.35536 6.87307 5.3559 6.87307 5.35644C6.87307 5.35698 6.87307 5.35752 6.87307 5.35807C6.87307 5.35861 6.87307 5.35916 6.87307 5.3597C6.87307 5.36025 6.87307 5.3608 6.87307 5.36135C6.87307 5.36189 6.87307 5.36244 6.87307 5.363C6.87307 5.36355 6.87307 5.3641 6.87307 5.36465C6.87307 5.36521 6.87307 5.36576 6.87307 5.36632C6.87307 5.36688 6.87307 5.36744 6.87307 5.36799C6.87307 5.36855 6.87307 5.36911 6.87307 5.36968C6.87307 5.37024 6.87307 5.3708 6.87307 5.37137C6.87307 5.37193 6.87307 5.3725 6.87307 5.37306C6.87307 5.37363 6.87307 5.3742 6.87307 5.37477C6.87307 5.37534 6.87307 5.37591 6.87307 5.37648C6.87307 5.37705 6.87307 5.37762 6.87307 5.3782C6.87307 5.37877 6.87307 5.37935 6.87307 5.37993C6.87307 5.3805 6.87307 5.38108 6.87307 5.38166C6.87307 5.38224 6.87307 5.38282 6.87307 5.3834C6.87307 5.38398 6.87307 5.38457 6.87307 5.38515C6.87307 5.38574 6.87307 5.38632 6.87307 5.38691C6.87307 5.3875 6.87307 5.38809 6.87307 5.38868C6.87307 5.38927 6.87307 5.38986 6.87307 5.39045C6.87307 5.39104 6.87307 5.39163 6.87307 5.39223C6.87307 5.39282 6.87307 5.39342 6.87307 5.39402C6.87307 5.39462 6.87307 5.39521 6.87307 5.39581C6.87307 5.39641 6.87307 5.39701 6.87307 5.39762C6.87307 5.39822 6.87307 5.39882 6.87307 5.39943C6.87307 5.40003 6.87307 5.40064 6.87307 5.40125C6.87307 5.40185 6.87307 5.40246 6.87307 5.40307C6.87307 5.40368 6.87307 5.40429 6.87307 5.40491C6.87307 5.40552 6.87307 5.40613 6.87307 5.40675C6.87307 5.40736 6.87307 5.40798 6.87307 5.4086C6.87307 5.40922 6.87307 5.40984 6.87307 5.41046C6.87307 5.41108 6.87307 5.4117 6.87307 5.41232C6.87307 5.41294 6.87307 5.41357 6.87307 5.41419C6.87307 5.41482 6.87307 5.41544 6.87307 5.41607C6.87307 5.4167 6.87307 5.41733 6.87307 5.41796C6.87307 5.41859 6.87307 5.41922 6.87307 5.41986C6.87307 5.42049 6.87307 5.42112 6.87307 5.42176C6.87307 5.42239 6.87307 5.42303 6.87307 5.42367C6.87307 5.42431 6.87307 5.42495 6.87307 5.42559C6.87307 5.42623 6.87307 5.42687 6.87307 5.42751C6.87307 5.42816 6.87307 5.4288 6.87307 5.42945C6.87307 5.43009 6.87307 5.43074 6.87307 5.43139C6.87307 5.43203 6.87307 5.43268 6.87307 5.43334C6.87307 5.43399 6.87307 5.43464 6.87307 5.43529C6.87307 5.43594 6.87307 5.4366 6.87307 5.43725C6.87307 5.43791 6.87307 5.43857 6.87307 5.43923C6.87307 5.43989 6.87307 5.44054 6.87307 5.44121C6.87307 5.44187 6.87307 5.44253 6.87307 5.44319C6.87307 5.44386 6.87307 5.44452 6.87307 5.44519C6.87307 5.44585 6.87307 5.44652 6.87307 5.44719C6.87307 5.44786 6.87307 5.44853 6.87307 5.4492C6.87307 5.44987 6.87307 5.45054 6.87307 5.45122C6.87307 5.45189 6.87307 5.45256 6.87307 5.45324C6.87307 5.45392 6.87307 5.45459 6.87307 5.45527C6.87307 5.45595 6.87307 5.45663 6.87307 5.45731C6.87307 5.45799 6.87307 5.45868 6.87307 5.45936C6.87307 5.46004 6.87307 5.46073 6.87307 5.46142C6.87307 5.4621 6.87307 5.46279 6.87307 5.46348C6.87307 5.46417 6.87307 5.46486 6.87307 5.46555C6.87307 5.46624 6.87307 5.46693 6.87307 5.46763C6.87307 5.46832 6.87307 5.46902 6.87307 5.46971C6.87307 5.47041 6.87307 5.47111 6.87307 5.47181C6.87307 5.47251 6.87307 5.47321 6.87307 5.47391C6.87307 5.47461 6.87307 5.47531 6.87307 5.47602C6.87307 5.47672 6.87307 5.47743 6.87307 5.47813C6.87307 5.47884 6.87307 5.47955 6.87307 5.48026C6.87307 5.48097 6.87307 5.48168 6.87307 5.48239C6.87307 5.4831 6.87307 5.48382 6.87307 5.48453C6.87307 5.48524 6.87307 5.48596 6.87307 5.48668C6.87307 5.48739 6.87307 5.48811 6.87307 5.48883C6.87307 5.48955 6.87307 5.49027 6.87307 5.49099C6.87307 5.49172 6.87307 5.49244 6.87307 5.49316C6.87307 5.49389 6.87307 5.49461 6.87307 5.49534C6.87307 5.49607 6.87307 5.4968 6.87307 5.49753C6.87307 5.49826 6.87307 5.49899 6.87307 5.49972C6.87307 5.50045 6.87307 5.50118 6.87307 5.50192C6.87307 5.50265 6.87307 5.50339 6.87307 5.50413C6.87307 5.50487 6.87307 5.5056 6.87307 5.50634C6.87307 5.50708 6.87307 5.50782 6.87307 5.50857C6.87307 5.50931 6.87307 5.51005 6.87307 5.5108C6.87307 5.51154 6.87307 5.51229 6.87307 5.51304C6.87307 5.51378 6.87307 5.51453 6.87307 5.51528C6.87307 5.51603 6.87307 5.51678 6.87307 5.51754C6.87307 5.51829 6.87307 5.51904 6.87307 5.5198C6.87307 5.52055 6.87307 5.52131 6.87307 5.52207C6.87307 5.52282 6.87307 5.52358 6.87307 5.52434C6.87307 5.5251 6.87307 5.52587 6.87307 5.52663C6.87307 5.52739 6.87307 5.52815 6.87307 5.52892C6.87307 5.52969 6.87307 5.53045 6.87307 5.53122C6.87307 5.53199 6.87307 5.53276 6.87307 5.53353C6.87307 5.5343 6.87307 5.53507 6.87307 5.53584C6.87307 5.53661 6.87307 5.53739 6.87307 5.53816C6.87307 5.53894 6.87307 5.53972 6.87307 5.54049C6.87307 5.54127 6.87307 5.54205 6.87307 5.54283C6.87307 5.54361 6.87307 5.54439 6.87307 5.54518C6.87307 5.54596 6.87307 5.54675 6.87307 5.54753C6.87307 5.54832 6.87307 5.5491 6.87307 5.54989C6.87307 5.55068 6.87307 5.55147 6.87307 5.55226C6.87307 5.55305 6.87307 5.55384 6.87307 5.55464C6.87307 5.55543 6.87307 5.55622 6.87307 5.55702C6.87307 5.55782 6.87307 5.55861 6.87307 5.55941C6.87307 5.56021 6.87307 5.56101 6.87307 5.56181C6.87307 5.56261 6.87307 5.56341 6.87307 5.56422C6.87307 5.56502 6.87307 5.56582 6.87307 5.56663C6.87307 5.56744 6.87307 5.56824 6.87307 5.56905C6.87307 5.56986 6.87307 5.57067 6.87307 5.57148C6.87307 5.57229 6.87307 5.57311 6.87307 5.57392C6.87307 5.57473 6.87307 5.57555 6.87307 5.57636C6.87307 5.57718 6.87307 5.578 6.87307 5.57882C6.87307 5.57963 6.87307 5.58045 6.87307 5.58128C6.87307 5.5821 6.87307 5.58292 6.87307 5.58374C6.87307 5.58457 6.87307 5.58539 6.87307 5.58622C6.87307 5.58705 6.87307 5.58787 6.87307 5.5887C6.87307 5.58953 6.87307 5.59036 6.87307 5.59119C6.87307 5.59202 6.87307 5.59286 6.87307 5.59369C6.87307 5.59452 6.87307 5.59536 6.87307 5.5962C6.87307 5.59703 6.87307 5.59787 6.87307 5.59871C6.87307 5.59955 6.87307 5.60039 6.87307 5.60123C6.87307 5.60207 6.87307 5.60291 6.87307 5.60376C6.87307 5.6046 6.87307 5.60545 6.87307 5.6063C6.87307 5.60714 6.87307 5.60799 6.87307 5.60884C6.87307 5.60969 6.87307 5.61054 6.87307 5.61139C6.87307 5.61224 6.87307 5.6131 6.87307 5.61395C6.87307 5.6148 6.87307 5.61566 6.87307 5.61652C6.87307 5.61737 6.87307 5.61823 6.87307 5.61909C6.87307 5.61995 6.87307 5.62081 6.87307 5.62167C6.87307 5.62253 6.87307 5.6234 6.87307 5.62426C6.87307 5.62513 6.87307 5.62599 6.87307 5.62686C6.87307 5.62773 6.87307 5.6286 6.87307 5.62947C6.87307 5.63033 6.87307 5.63121 6.87307 5.63208C6.87307 5.63295 6.87307 5.63382 6.87307 5.6347C6.87307 5.63557 6.87307 5.63645 6.87307 5.63733C6.87307 5.6382 6.87307 5.63908 6.87307 5.63996C6.87307 5.64084 6.87307 5.64172 6.87307 5.6426C6.87307 5.64349 6.87307 5.64437 6.87307 5.64526C6.87307 5.64614 6.87307 5.64703 6.87307 5.64791C6.87307 5.6488 6.87307 5.64969 6.87307 5.65058C6.87307 5.65147 6.87307 5.65236 6.87307 5.65325C6.87307 5.65415 6.87307 5.65504 6.87307 5.65593C6.87307 5.65683 6.87307 5.65773 6.87307 5.65862C6.87307 5.65952 6.87307 5.66042 6.87307 5.66132C6.87307 5.66222 6.87307 5.66312 6.87307 5.66402C6.87307 5.66493 6.87307 5.66583 6.87307 5.66674C6.87307 5.66764 6.87307 5.66855 6.87307 5.66946C6.87307 5.67036 6.87307 5.67127 6.87307 5.67218C6.87307 5.67309 6.87307 5.674 6.87307 5.67492C6.87307 5.67583 6.87307 5.67674 6.87307 5.67766C6.87307 5.67857 6.87307 5.67949 6.87307 5.68041C6.87307 5.68133 6.87307 5.68225 6.87307 5.68317C6.87307 5.68409 6.87307 5.68501 6.87307 5.68593C6.87307 5.68686 6.87307 5.68778 6.87307 5.6887C6.87307 5.68963 6.87307 5.69056 6.87307 5.69149C6.87307 5.69241 6.87307 5.69334 6.87307 5.69427C6.87307 5.6952 6.87307 5.69614 6.87307 5.69707C6.87307 5.698 6.87307 5.69894 6.87307 5.69987C6.87307 5.70081 6.87307 5.70175 6.87307 5.70268C6.87307 5.70362 6.87307 5.70456 6.87307 5.7055C6.87307 5.70644 6.87307 5.70739 6.87307 5.70833C6.87307 5.70927 6.87307 5.71022 6.87307 5.71116C6.87307 5.71211 6.87307 5.71306 6.87307 5.714C6.87307 5.71495 6.87307 5.7159 6.87307 5.71685C6.87307 5.7178 6.87307 5.71876 6.87307 5.71971C6.87307 5.72066 6.87307 5.72162 6.87307 5.72257C6.87307 5.72353 6.87307 5.72449 6.87307 5.72545C6.87307 5.72641 6.87307 5.72737 6.87307 5.72833C6.87307 5.72929 6.87307 5.73025 6.87307 5.73121C6.87307 5.73218 6.87307 5.73314 6.87307 5.73411C6.87307 5.73508 6.87307 5.73604 6.87307 5.73701C6.87307 5.73798 6.87307 5.73895 6.87307 5.73992C6.87307 5.74089 6.87307 5.74187 6.87307 5.74284C6.87307 5.74381 6.87307 5.74479 6.87307 5.74577C6.87307 5.74674 6.87307 5.74772 6.87307 5.7487C6.87307 5.74968 6.87307 5.75066 6.87307 5.75164C6.87307 5.75262 6.87307 5.7536 6.87307 5.75459C6.87307 5.75557 6.87307 5.75656 6.87307 5.75754C6.87307 5.75853 6.87307 5.75952 6.87307 5.76051C6.87307 5.7615 6.87307 5.76249 6.87307 5.76348C6.87307 5.76447 6.87307 5.76546 6.87307 5.76646C6.87307 5.76745 6.87307 5.76845 6.87307 5.76944C6.87307 5.77044 6.87307 5.77144 6.87307 5.77244C6.87307 5.77344 6.87307 5.77444 6.87307 5.77544C6.87307 5.77644 6.87307 5.77745 6.87307 5.77845C6.87307 5.77945 6.87307 5.78046 6.87307 5.78147C6.87307 5.78247 6.87307 5.78348 6.87307 5.78449C6.87307 5.7855 6.87307 5.78651 6.87307 5.78752C6.87307 5.78854 6.87307 5.78955 6.87307 5.79056C6.87307 5.79158 6.87307 5.79259 6.87307 5.79361C6.87307 5.79463 6.87307 5.79565 6.87307 5.79667C6.87307 5.79769 6.87307 5.79871 6.87307 5.79973C6.87307 5.80075 6.87307 5.80178 6.87307 5.8028C6.87307 5.80383 6.87307 5.80485 6.87307 5.80588C6.87307 5.80691 6.87307 5.80793 6.87307 5.80896C6.87307 5.80999 6.87307 5.81103 6.87307 5.81206C6.87307 5.81309 6.87307 5.81412 6.87307 5.81516C6.87307 5.81619 6.87307 5.81723 6.87307 5.81827C6.87307 5.8193 6.87307 5.82034 6.87307 5.82138C6.87307 5.82242 6.87307 5.82347 6.87307 5.82451C6.87307 5.82555 6.87307 5.82659 6.87307 5.82764C6.87307 5.82868 6.87307 5.82973 6.87307 5.83078C6.87307 5.83183 6.87307 5.83288 6.87307 5.83393C6.87307 5.83498 6.87307 5.83603 6.87307 5.83708C6.87307 5.83813 6.87307 5.83919 6.87307 5.84024C6.87307 5.8413 6.87307 5.84235 6.87307 5.84341C6.87307 5.84447 6.87307 5.84553 6.87307 5.84659C6.87307 5.84765 6.87307 5.84871 6.87307 5.84977C6.87307 5.85084 6.87307 5.8519 6.87307 5.85297C6.87307 5.85403 6.87307 5.8551 6.87307 5.85617C6.87307 5.85724 6.87307 5.8583 6.87307 5.85938C6.87307 5.86045 6.87307 5.86152 6.87307 5.86259C6.87307 5.86366 6.87307 5.86474 6.87307 5.86581C6.87307 5.86689 6.87307 5.86797 6.87307 5.86905C6.87307 5.87012 6.87307 5.8712 6.87307 5.87228C6.87307 5.87336 6.87307 5.87445 6.87307 5.87553C6.87307 5.87661 6.87307 5.8777 6.87307 5.87878C6.87307 5.87987 6.87307 5.88096 6.87307 5.88204C6.87307 5.88313 6.87307 5.88422 6.87307 5.88531C6.87307 5.8864 6.87307 5.8875 6.87307 5.88859C6.87307 5.88968 6.87307 5.89078 6.87307 5.89187C6.87307 5.89297 6.87307 5.89407 6.87307 5.89517C6.87307 5.89627 6.87307 5.89737 6.87307 5.89847C6.87307 5.89957 6.87307 5.90067 6.87307 5.90177C6.87307 5.90288 6.87307 5.90398 6.87307 5.90509C6.87307 5.90619 6.87307 5.9073 6.87307 5.90841C6.87307 5.90952 6.87307 5.91063 6.87307 5.91174C6.87307 5.91285 6.87307 5.91396 6.87307 5.91508C6.87307 5.91619 6.87307 5.91731 6.87307 5.91842C6.87307 5.91954 6.87307 5.92066 6.87307 5.92178C6.87307 5.9229 6.87307 5.92402 6.87307 5.92514C6.87307 5.92626 6.87307 5.92738 6.87307 5.92851C6.87307 5.92963 6.87307 5.93075 6.87307 5.93188C6.87307 5.93301 6.87307 5.93414 6.87307 5.93526C6.87307 5.93639 6.87307 5.93752 6.87307 5.93866C6.87307 5.93979 6.87307 5.94092 6.87307 5.94205C6.87307 5.94319 6.87307 5.94432 6.87307 5.94546C6.87307 5.9466 6.87307 5.94774 6.87307 5.94887C6.87307 5.95001 6.87307 5.95115 6.87307 5.9523C6.87307 5.95344 6.87307 5.95458 6.87307 5.95573C6.87307 5.95687 6.87307 5.95802 6.87307 5.95916C6.87307 5.96031 6.87307 5.96146 6.87307 5.96261C6.87307 5.96376 6.87307 5.96491 6.87307 5.96606C6.87307 5.96721 6.87307 5.96836 6.87307 5.96952C6.87307 5.97067 6.87307 5.97183 6.87307 5.97299C6.87307 5.97414 6.87307 5.9753 6.87307 5.97646C6.87307 5.97762 6.87307 5.97878 6.87307 5.97994C6.87307 5.98111 6.87307 5.98227 6.87307 5.98343C6.87307 5.9846 6.87307 5.98577 6.87307 5.98693C6.87307 5.9881 6.87307 5.98927 6.87307 5.99044C6.87307 5.99161 6.87307 5.99278 6.87307 5.99395C6.87307 5.99512 6.87307 5.9963 6.87307 5.99747C6.87307 5.99865 6.87307 5.99982 6.87307 6.001C6.87307 6.00218 6.87307 6.00336 6.87307 6.00454C6.87307 6.00572 6.87307 6.0069 6.87307 6.00808C6.87307 6.00926 6.87307 6.01045 6.87307 6.01163C6.87307 6.01282 6.87307 6.014 6.87307 6.01519C6.87307 6.01638 6.87307 6.01757 6.87307 6.01876C6.87307 6.01995 6.87307 6.02114 6.87307 6.02233C6.87307 6.02353 6.87307 6.02472 6.87307 6.02591C6.87307 6.02711 6.87307 6.02831 6.87307 6.0295C6.87307 6.0307 6.87307 6.0319 6.87307 6.0331C6.87307 6.0343 6.87307 6.0355 6.87307 6.03671C6.87307 6.03791 6.87307 6.03911 6.87307 6.04032C6.87307 6.04152 6.87307 6.04273 6.87307 6.04394C6.87307 6.04515 6.87307 6.04636 6.87307 6.04757C6.87307 6.04878 6.87307 6.04999 6.87307 6.0512C6.87307 6.05241 6.87307 6.05363 6.87307 6.05484C6.87307 6.05606 6.87307 6.05728 6.87307 6.0585C6.87307 6.05971 6.87307 6.06093 6.87307 6.06215C6.87307 6.06337 6.87307 6.0646 6.87307 6.06582C6.87307 6.06704 6.87307 6.06827 6.87307 6.06949C6.87307 6.07072 6.87307 6.07195 6.87307 6.07317C6.87307 6.0744 6.87307 6.07563 6.87307 6.07686C6.87307 6.07809 6.87307 6.07933 6.87307 6.08056C6.87307 6.08179 6.87307 6.08303 6.87307 6.08426C6.87307 6.0855 6.87307 6.08674 6.87307 6.08798C6.87307 6.08921 6.87307 6.09045 6.87307 6.09169C6.87307 6.09294 6.87307 6.09418 6.87307 6.09542C6.87307 6.09667 6.87307 6.09791 6.87307 6.09916C6.87307 6.1004 6.87307 6.10165 6.87307 6.1029C6.87307 6.10415 6.87307 6.1054 6.87307 6.10665C6.87307 6.1079 6.87307 6.10915 6.87307 6.11041C6.87307 6.11166 6.87307 6.11291 6.87307 6.11417C6.87307 6.11543 6.87307 6.11668 6.87307 6.11794C6.87307 6.1192 6.87307 6.12046 6.87307 6.12172C6.87307 6.12299 6.87307 6.12425 6.87307 6.12551C6.87307 6.12678 6.87307 6.12804 6.87307 6.12931C6.87307 6.13057 6.87307 6.13184 6.87307 6.13311C6.87307 6.13438 6.87307 6.13565 6.87307 6.13692C6.87307 6.13819 6.87307 6.13947 6.87307 6.14074C6.87307 6.14201 6.87307 6.14329 6.87307 6.14457C6.87307 6.14584 6.87307 6.14712 6.87307 6.1484C6.87307 6.14968 6.87307 6.15096 6.87307 6.15224C6.87307 6.15352 6.87307 6.15481 6.87307 6.15609C6.87307 6.15738 6.87307 6.15866 6.87307 6.15995C6.87307 6.16123 6.87307 6.16252 6.87307 6.16381C6.87307 6.1651 6.87307 6.16639 6.87307 6.16768C6.87307 6.16898 6.87307 6.17027 6.87307 6.17156C6.87307 6.17286 6.87307 6.17415 6.87307 6.17545C6.87307 6.17675 6.87307 6.17805 6.87307 6.17935C6.87307 6.18065 6.87307 6.18195 6.87307 6.18325C6.87307 6.18455 6.87307 6.18585 6.87307 6.18716C6.87307 6.18846 6.87307 6.18977 6.87307 6.19108C6.87307 6.19238 6.87307 6.19369 6.87307 6.195C6.87307 6.19631 6.87307 6.19762 6.87307 6.19894C6.87307 6.20025 6.87307 6.20156 6.87307 6.20288C6.87307 6.20419 6.87307 6.20551 6.87307 6.20682C6.87307 6.20814 6.87307 6.20946 6.87307 6.21078C6.87307 6.2121 6.87307 6.21342 6.87307 6.21474C6.87307 6.21607 6.87307 6.21739 6.87307 6.21871C6.87307 6.22004 6.87307 6.22137 6.87307 6.22269C6.87307 6.22402 6.87307 6.22535 6.87307 6.22668C6.87307 6.22801 6.87307 6.22934 6.87307 6.23067C6.87307 6.23201 6.87307 6.23334 6.87307 6.23468C6.87307 6.23601 6.87307 6.23735 6.87307 6.23869C6.87307 6.24002 6.87307 6.24136 6.87307 6.2427C6.87307 6.24404 6.87307 6.24538 6.87307 6.24673C6.87307 6.24807 6.87307 6.24941 6.87307 6.25076C6.87307 6.2521 6.87307 6.25345 6.87307 6.2548C6.87307 6.25615 6.87307 6.2575 6.87307 6.25885C6.87307 6.2602 6.87307 6.26155 6.87307 6.2629C6.87307 6.26426 6.87307 6.26561 6.87307 6.26696C6.87307 6.26832 6.87307 6.26968 6.87307 6.27104C6.87307 6.27239 6.87307 6.27375 6.87307 6.27511C6.87307 6.27647 6.87307 6.27784 6.87307 6.2792C6.87307 6.28056 6.87307 6.28193 6.87307 6.28329C6.87307 6.28466 6.87307 6.28603 6.87307 6.28739C6.87307 6.28876 6.87307 6.29013 6.87307 6.2915C6.87307 6.29287 6.87307 6.29425 6.87307 6.29562C6.87307 6.29699 6.87307 6.29837 6.87307 6.29974C6.87307 6.30112 6.87307 6.3025 6.87307 6.30387C6.87307 6.30525 6.87307 6.30663 6.87307 6.30801C6.87307 6.30939 6.87307 6.31078 6.87307 6.31216C6.87307 6.31354 6.87307 6.31493 6.87307 6.31631C6.87307 6.3177 6.87307 6.31909 6.87307 6.32048C6.87307 6.32187 6.87307 6.32325 6.87307 6.32465C6.87307 6.32604 6.87307 6.32743 6.87307 6.32882C6.87307 6.33022 6.87307 6.33161 6.87307 6.33301C6.87307 6.3344 6.87307 6.3358 6.87307 6.3372C6.87307 6.3386 6.87307 6.34 6.87307 6.3414C6.87307 6.3428 6.87307 6.3442 6.87307 6.34561C6.87307 6.34701 6.87307 6.34842 6.87307 6.34982C6.87307 6.35123 6.87307 6.35264 6.87307 6.35405C6.87307 6.35546 6.87307 6.35687 6.87307 6.35828H7.62307ZM7.39171 5.53701C7.65978 5.42585 8.08894 5.23472 8.35616 4.96749L7.82583 4.43716C7.67856 4.58443 7.38637 4.7273 7.10444 4.8442L7.39171 5.53701ZM8.35617 4.96748C8.83076 4.49287 9.125 3.83611 9.125 3.11133H8.375C8.375 3.6292 8.16554 4.09744 7.82583 4.43717L8.35617 4.96748ZM9.125 3.11133C9.125 1.66158 7.94976 0.486328 6.5 0.486328V1.23633C7.53554 1.23633 8.375 2.07579 8.375 3.11133H9.125ZM6.5 0.486328C5.05024 0.486328 3.875 1.66158 3.875 3.11133H4.625C4.625 2.07579 5.46446 1.23633 6.5 1.23633V0.486328ZM3.875 3.11133C3.875 3.83611 4.16924 4.49287 4.64383 4.96748L5.17417 4.43717C4.83446 4.09744 4.625 3.6292 4.625 3.11133H3.875ZM4.64383 4.96749C4.9108 5.23446 5.33738 5.42547 5.60637 5.53701L5.89363 4.8442C5.61262 4.72768 5.3217 4.5847 5.17416 4.43716L4.64383 4.96749ZM5.37505 5.19686C5.37638 5.27614 5.37641 5.66015 5.375 6.35752L6.125 6.35903C6.12639 5.6672 6.12642 5.27276 6.12495 5.18434L5.37505 5.19686ZM5.75 6.73328H7.24807V5.98328H5.75V6.73328ZM3.26516 5.12649L3.51516 4.87649L2.98483 4.34616L2.73483 4.59616L3.26516 5.12649ZM10.2652 4.59616L10.0152 4.34616L9.48483 4.87649L9.73483 5.12649L10.2652 4.59616ZM4.01516 0.596163L3.76516 0.346163L3.23483 0.876493L3.48483 1.12649L4.01516 0.596163ZM9.51517 1.12649L9.76517 0.876493L9.23483 0.346163L8.98484 0.596163L9.51517 1.12649ZM10.25 2.23633H10V2.98633H10.25V2.23633ZM3 2.23633H2.75V2.98633H3V2.23633Z" fill="#1C1B1F"/>
</svg>
