<svg width="17" height="20" viewBox="0 0 17 20" fill="none" xmlns="http://www.w3.org/2000/svg">
<path fill-rule="evenodd" clip-rule="evenodd" d="M5.39053 0.858793C5.5056 0.639116 5.7331 0.501465 5.98109 0.501465H13.9811C14.2363 0.501465 14.4691 0.647168 14.5807 0.876706C14.6922 1.10624 14.663 1.37933 14.5053 1.58001L10.4638 6.72368H15.7589C16.0237 6.72368 16.2634 6.8804 16.3696 7.12297C16.4758 7.36553 16.4283 7.64796 16.2487 7.84253L5.58207 19.3981C5.37442 19.623 5.04025 19.6776 4.77178 19.5305C4.50332 19.3834 4.36957 19.0723 4.44748 18.7762L6.44962 11.1681H1.0922C0.858913 11.1681 0.642594 11.0462 0.521823 10.8466C0.401052 10.647 0.393401 10.3988 0.50165 10.1921L5.39053 0.858793ZM6.38447 1.8348L2.194 9.83479H7.31442C7.52116 9.83479 7.71619 9.9307 7.84241 10.0944C7.96863 10.2582 8.01175 10.4712 7.95914 10.6711L6.41826 16.5264L14.2362 8.05701H9.0922C8.83698 8.05701 8.60416 7.91131 8.4926 7.68177C8.38104 7.45223 8.41031 7.17915 8.56798 6.97847L12.6094 1.8348H6.38447Z" fill="#7F8891"/>
</svg>
