<svg width="18" height="17" viewBox="0 0 18 17" fill="none" xmlns="http://www.w3.org/2000/svg">
<path d="M8.59148 16.114H8.57964C6.39459 16.0734 0.0898438 10.3769 0.0898438 4.98152C0.0898438 2.38958 2.22583 0.114014 4.66043 0.114014C6.59762 0.114014 7.90035 1.45059 8.59064 2.42341C9.27923 1.45228 10.582 0.114014 12.52 0.114014C14.9563 0.114014 17.0914 2.38958 17.0914 4.98236C17.0914 10.376 10.7858 16.0726 8.60079 16.1123H8.59148V16.114ZM4.66127 1.38376C2.90173 1.38376 1.35959 3.06548 1.35959 4.98321C1.35959 9.83887 7.30989 14.7927 8.59233 14.8451C9.87646 14.7927 15.8251 9.83972 15.8251 4.98321C15.8251 3.06548 14.2829 1.38376 12.5234 1.38376C10.3849 1.38376 9.1904 3.86742 9.18025 3.89196C8.98569 4.36737 8.20235 4.36737 8.00694 3.89196C7.9951 3.86658 6.80149 1.38376 4.66212 1.38376H4.66127Z" fill="#AB0C0C"/>
</svg>
