<svg width="25" height="17" viewBox="0 0 25 17" fill="none" xmlns="http://www.w3.org/2000/svg">
<path d="M23.8767 11.493C23.5944 11.2098 23.1352 11.2098 22.852 11.493L20.7058 13.6392V3.73977C20.7058 1.74055 19.0788 0.114497 17.0805 0.114497H11.4251C11.0249 0.114497 10.7001 0.439321 10.7001 0.839551C10.7001 1.23978 11.0249 1.5646 11.4251 1.5646H17.0805C18.2793 1.5646 19.2557 2.54101 19.2557 3.73977V13.6392L17.1095 11.493C16.8263 11.2098 16.3671 11.2098 16.0848 11.493C15.8025 11.7763 15.8006 12.2355 16.0848 12.5177L19.4684 15.9013C19.6085 16.0434 19.7942 16.114 19.9807 16.114C20.1673 16.114 20.351 16.0444 20.4931 15.9013L23.8767 12.5177C24.1609 12.2355 24.1609 11.7763 23.8767 11.493ZM13.5713 14.6639H7.91585C6.71709 14.6639 5.74069 13.6875 5.74069 12.4887V2.58935L7.88685 4.73551C8.02992 4.87762 8.21554 4.94819 8.40115 4.94819C8.58676 4.94819 8.77238 4.87762 8.91352 4.73551C9.19678 4.45225 9.19678 3.99305 8.91352 3.71076L5.52994 0.327179C5.24668 0.0429584 4.78748 0.0429584 4.5052 0.327179L1.12161 3.71076C0.837392 3.99305 0.837392 4.45225 1.12161 4.73551C1.40583 5.01876 1.8631 5.01876 2.14636 4.73551L4.29251 2.58935V12.4887C4.29251 14.488 5.91953 16.114 7.91778 16.114H13.5732C13.9734 16.114 14.2983 15.7892 14.2983 15.389C14.2983 14.9887 13.9725 14.6639 13.5732 14.6639H13.5713Z" fill="#0C9E72"/>
</svg>
