<svg width="17" height="16" viewBox="0 0 17 16" fill="none" xmlns="http://www.w3.org/2000/svg">
<path d="M12.5156 4.41237L8.51555 0.412372C8.28115 0.177972 7.90115 0.177972 7.66755 0.412372L3.66755 4.41237C3.43235 4.64677 3.43235 5.02677 3.66755 5.26037C3.90275 5.49397 4.28115 5.49557 4.51555 5.26037L7.49155 2.28437V10.4364C7.49155 10.7676 7.76035 11.0364 8.09155 11.0364C8.42275 11.0364 8.69155 10.7676 8.69155 10.4364V2.28437L11.6676 5.26037C11.7844 5.37797 11.938 5.43637 12.0916 5.43637C12.2452 5.43637 12.3988 5.37877 12.5156 5.26037C12.75 5.02597 12.75 4.64677 12.5156 4.41237Z" fill="#7F8891"/>
<path d="M14.258 15.9916H1.92515C0.913953 15.9916 0.0915527 15.1692 0.0915527 14.158V9.63637C0.0915527 9.30517 0.360353 9.03637 0.691553 9.03637C1.02275 9.03637 1.29155 9.30517 1.29155 9.63637V14.158C1.29155 14.5076 1.57555 14.7916 1.92515 14.7916H14.258C14.6076 14.7916 14.8916 14.5076 14.8916 14.158V9.63637C14.8916 9.30517 15.1604 9.03637 15.4916 9.03637C15.8228 9.03637 16.0916 9.30517 16.0916 9.63637V14.158C16.0916 15.1692 15.2692 15.9916 14.258 15.9916Z" fill="#7F8891"/>
</svg>
