<svg width="17" height="16" viewBox="0 0 17 16" fill="none" xmlns="http://www.w3.org/2000/svg">
<path fill-rule="evenodd" clip-rule="evenodd" d="M8.48071 0.429201C8.69323 0.428655 8.88762 0.548846 8.9821 0.739209L11.1563 5.12006L16.005 5.82707C16.215 5.85768 16.3894 6.00468 16.4552 6.2064C16.5209 6.40812 16.4666 6.62967 16.315 6.77812L12.7885 10.2318L13.6261 15.0309C13.6628 15.241 13.5765 15.4537 13.4037 15.5788C13.231 15.704 13.002 15.7197 12.8138 15.6194L8.48217 13.3107L4.15153 15.6194C3.96317 15.7198 3.73404 15.704 3.56125 15.5786C3.38847 15.4533 3.30229 15.2404 3.33926 15.0302L4.18297 10.2318L0.650644 6.77846C0.498815 6.63003 0.444359 6.4083 0.510152 6.20642C0.575946 6.00454 0.75059 5.85747 0.960725 5.827L5.83593 5.12007L7.98093 0.741781C8.07443 0.550935 8.26819 0.429747 8.48071 0.429201ZM8.48539 2.24934L6.70876 5.87571C6.62767 6.04125 6.47007 6.15606 6.28764 6.18252L2.23846 6.76967L5.17384 9.63942C5.30558 9.76821 5.36527 9.95372 5.33336 10.1352L4.637 14.0956L8.21958 12.1857C8.38368 12.0982 8.58057 12.0982 8.74467 12.1856L12.3299 14.0965L11.6384 10.1345C11.6068 9.95341 11.6663 9.76837 11.7977 9.63976L14.7289 6.76907L10.7059 6.18245C10.5246 6.15603 10.3679 6.04235 10.2865 5.87828L8.48539 2.24934Z" fill="#7F8891"/>
</svg>
