<svg width="5" height="19" viewBox="0 0 5 19" fill="none" xmlns="http://www.w3.org/2000/svg">
<path d="M2.09155 10.114C2.64384 10.114 3.09155 9.6663 3.09155 9.11401C3.09155 8.56173 2.64384 8.11401 2.09155 8.11401C1.53927 8.11401 1.09155 8.56173 1.09155 9.11401C1.09155 9.6663 1.53927 10.114 2.09155 10.114Z" stroke="#7F8891" stroke-width="2" stroke-linecap="round" stroke-linejoin="round"/>
<path d="M2.09155 3.11401C2.64384 3.11401 3.09155 2.6663 3.09155 2.11401C3.09155 1.56173 2.64384 1.11401 2.09155 1.11401C1.53927 1.11401 1.09155 1.56173 1.09155 2.11401C1.09155 2.6663 1.53927 3.11401 2.09155 3.11401Z" stroke="#7F8891" stroke-width="2" stroke-linecap="round" stroke-linejoin="round"/>
<path d="M2.09155 17.114C2.64384 17.114 3.09155 16.6663 3.09155 16.114C3.09155 15.5617 2.64384 15.114 2.09155 15.114C1.53927 15.114 1.09155 15.5617 1.09155 16.114C1.09155 16.6663 1.53927 17.114 2.09155 17.114Z" stroke="#7F8891" stroke-width="2" stroke-linecap="round" stroke-linejoin="round"/>
</svg>
